<svg width="182" height="25" viewBox="0 0 182 25" fill="none" xmlns="http://www.w3.org/2000/svg">
<path d="M4.42286 7.11858V15.9643H8.84572C9.45187 15.9643 10.0221 15.8513 10.5563 15.6253C11.0905 15.389 11.558 15.0705 11.9587 14.6698C12.3593 14.2691 12.6727 13.8017 12.8987 13.2674C13.135 12.7229 13.2532 12.1476 13.2532 11.5414C13.2532 10.9353 13.135 10.3651 12.8987 9.83086C12.6727 9.28635 12.3593 8.81375 11.9587 8.41308C11.558 8.0124 11.0905 7.69905 10.5563 7.47303C10.0221 7.23673 9.45187 7.11858 8.84572 7.11858H4.42286ZM4.42286 24.7946H0V2.69572H8.84572C9.65734 2.69572 10.4382 2.8036 11.1881 3.01935C11.9381 3.22482 12.6367 3.52276 13.284 3.91316C13.9415 4.29329 14.5374 4.75561 15.0716 5.30012C15.6161 5.83436 16.0785 6.43024 16.4586 7.08776C16.849 7.74528 17.1469 8.44903 17.3524 9.19902C17.5681 9.94901 17.676 10.7298 17.676 11.5414C17.676 12.7537 17.4449 13.8993 16.9825 14.978C16.5202 16.0465 15.8884 16.9814 15.087 17.7828C14.2857 18.5841 13.3456 19.216 12.2669 19.6783C11.1984 20.1406 10.058 20.3717 8.84572 20.3717H4.42286V24.7946Z" fill="#EE26C2"/>
<path d="M24.7957 3.80529C24.7957 4.19569 24.7187 4.56041 24.5646 4.89945C24.4208 5.23848 24.2204 5.53642 23.9636 5.79326C23.7067 6.03983 23.4036 6.24017 23.0543 6.39428C22.7153 6.53811 22.3506 6.61003 21.9602 6.61003C21.5698 6.61003 21.1999 6.53811 20.8506 6.39428C20.5116 6.24017 20.2136 6.03983 19.9568 5.79326C19.7102 5.53642 19.5099 5.23848 19.3558 4.89945C19.212 4.56041 19.14 4.19569 19.14 3.80529C19.14 3.42516 19.212 3.06558 19.3558 2.72654C19.5099 2.37723 19.7102 2.0793 19.9568 1.83272C20.2136 1.57588 20.5116 1.37554 20.8506 1.23171C21.1999 1.0776 21.5698 1.00055 21.9602 1.00055C22.3506 1.00055 22.7153 1.0776 23.0543 1.23171C23.4036 1.37554 23.7067 1.57588 23.9636 1.83272C24.2204 2.0793 24.4208 2.37723 24.5646 2.72654C24.7187 3.06558 24.7957 3.42516 24.7957 3.80529ZM24.0714 24.7946H19.8335V8.28979H24.0714V24.7946Z" fill="#EE26C2"/>
<path d="M31.4994 24.7946H27.2923V8.28979H28.3094L29.6963 9.8925C30.3744 9.27607 31.1398 8.80348 31.9925 8.47472C32.8555 8.13568 33.7545 7.96617 34.6894 7.96617C35.6962 7.96617 36.6465 8.16137 37.5404 8.55177C38.4342 8.9319 39.215 9.461 39.8828 10.1391C40.5506 10.8069 41.0745 11.5928 41.4547 12.4969C41.8451 13.3907 42.0403 14.3462 42.0403 15.3633V24.7946H37.8332V15.3633C37.8332 14.9318 37.751 14.526 37.5866 14.1458C37.4222 13.7554 37.1962 13.4164 36.9085 13.1287C36.6209 12.8411 36.287 12.6151 35.9068 12.4507C35.5267 12.2863 35.1209 12.2041 34.6894 12.2041C34.2476 12.2041 33.8315 12.2863 33.4411 12.4507C33.0507 12.6151 32.7117 12.8411 32.424 13.1287C32.1364 13.4164 31.9103 13.7554 31.746 14.1458C31.5816 14.526 31.4994 14.9318 31.4994 15.3633V24.7946Z" fill="#EE26C2"/>
<path d="M49.2833 24.7946H45.0453V1.72485H49.2833V16.2725L55.5554 8.32061H60.3944L54.9236 15.1938L60.3944 24.7946H55.5554L52.2113 18.7999L49.2833 22.6833V24.7946Z" fill="#EE26C2"/>
<path fill-rule="evenodd" clip-rule="evenodd" d="M82.2354 3.29853C81.806 2.98596 81.3543 2.70083 80.8828 2.44575C78.5127 1.16375 75.7824 0.71784 73.1318 1.17554C73.1069 1.17974 73.0819 1.18402 73.057 1.18838C72.0533 1.35997 71.0821 1.65829 70.1434 2.08332C69.2046 2.50836 68.3327 3.0445 67.5278 3.69173C66.7367 4.33271 66.0264 5.07854 65.3968 5.92921C64.7772 6.78366 64.2747 7.72232 63.8894 8.74518C63.5041 9.76804 63.2624 10.8049 63.1643 11.8558C63.0799 12.9004 63.1217 13.9296 63.2895 14.9432C63.4711 15.9506 63.7744 16.9237 64.1995 17.8625C64.2618 18.0002 64.3265 18.1365 64.3935 18.2713C64.791 19.0844 65.2817 19.855 65.8599 20.5667C67.6104 22.7214 70.0539 24.2026 72.774 24.7577C75.4942 25.3129 78.3226 24.9077 80.7775 23.6112C83.2324 22.3147 85.1618 20.2071 86.2369 17.6475L81.9354 15.8407C81.2334 17.5074 79.9267 18.8874 78.2438 19.6619L78.229 19.5832C77.6144 19.8772 76.9485 20.0903 76.2425 20.2067C75.331 20.3569 74.431 20.333 73.5765 20.1594C70.7432 19.5263 68.4392 17.233 67.9381 14.1928C67.2795 10.1967 69.985 6.4233 73.9811 5.76469C76.298 5.38284 78.54 6.13184 80.1435 7.60754C80.9104 8.34098 81.524 9.24361 81.92 10.2693L86.8179 8.44026L86.841 8.50214C87.5358 7.73248 88.276 6.83885 89.0364 5.89617C87.5293 5.80974 86.0998 5.75122 84.8881 5.78172C85.2192 4.52988 85.4972 2.97096 85.7624 1.31127C84.4647 1.99527 83.2429 2.66393 82.2354 3.29853Z" fill="black"/>
<path d="M94.9869 24.6888H90.738V1.40272H94.9869V8.76032C95.4953 8.37663 96.0193 8.107 96.5588 7.95145C97.0984 7.78553 97.6483 7.70257 98.2086 7.70257C99.2358 7.70257 100.201 7.8996 101.103 8.29367C102.006 8.67736 102.789 9.21142 103.454 9.89585C104.128 10.5699 104.657 11.3632 105.041 12.2758C105.435 13.178 105.632 14.1424 105.632 15.1691V24.6888H101.352V15.1691H101.384C101.384 14.7335 101.301 14.3239 101.135 13.9402C100.969 13.5461 100.74 13.2039 100.45 12.9136C100.159 12.6232 99.822 12.395 99.4381 12.2291C99.0542 12.0632 98.6444 11.9802 98.2086 11.9802C97.7624 11.9802 97.3422 12.0632 96.9479 12.2291C96.5537 12.395 96.2113 12.6232 95.9207 12.9136C95.6302 13.2039 95.4019 13.5461 95.2359 13.9402C95.0699 14.3239 94.9869 14.7335 94.9869 15.1691V24.6888Z" fill="black"/>
<path d="M113.679 3.50267C113.679 3.89674 113.601 4.26488 113.445 4.60709C113.3 4.9493 113.098 5.25004 112.838 5.50929C112.579 5.75817 112.273 5.96039 111.92 6.11594C111.578 6.26112 111.209 6.33371 110.815 6.33371C110.421 6.33371 110.047 6.26112 109.695 6.11594C109.352 5.96039 109.051 5.75817 108.792 5.50929C108.543 5.25004 108.341 4.9493 108.185 4.60709C108.04 4.26488 107.967 3.89674 107.967 3.50267C107.967 3.11898 108.04 2.75602 108.185 2.41381C108.341 2.06123 108.543 1.76049 108.792 1.51161C109.051 1.25236 109.352 1.05014 109.695 0.904958C110.047 0.749407 110.421 0.671631 110.815 0.671631C111.209 0.671631 111.578 0.749407 111.92 0.904958C112.273 1.05014 112.579 1.25236 112.838 1.51161C113.098 1.76049 113.3 2.06123 113.445 2.41381C113.601 2.75602 113.679 3.11898 113.679 3.50267ZM112.947 24.6888H108.667V8.02923H112.947V24.6888Z" fill="black"/>
<path d="M130.768 11.3425L127.655 14.4691C127.499 14.0335 127.287 13.6446 127.017 13.3024C126.747 12.9498 126.441 12.6543 126.099 12.4158C125.767 12.1773 125.403 11.9958 125.009 11.8714C124.615 11.7469 124.21 11.6847 123.795 11.6847C123.214 11.6847 122.664 11.804 122.145 12.0425C121.637 12.281 121.191 12.618 120.807 13.0535C120.433 13.4787 120.138 13.9869 119.92 14.578C119.702 15.1691 119.593 15.8224 119.593 16.5379C119.593 17.1186 119.702 17.6631 119.92 18.1712C120.138 18.6793 120.433 19.1253 120.807 19.5089C121.191 19.8926 121.637 20.1934 122.145 20.4111C122.664 20.6289 123.214 20.7378 123.795 20.7378C124.21 20.7378 124.61 20.6808 124.994 20.5667C125.378 20.4526 125.735 20.2919 126.068 20.0845C126.41 19.8667 126.711 19.6075 126.97 19.3067C127.24 18.9956 127.458 18.6534 127.624 18.2801L130.737 21.4067C130.342 21.9667 129.886 22.4696 129.367 22.9155C128.859 23.3614 128.303 23.74 127.702 24.0511C127.11 24.3622 126.483 24.5955 125.818 24.751C125.165 24.917 124.49 24.9999 123.795 24.9999C122.623 24.9999 121.518 24.7822 120.48 24.3466C119.453 23.9007 118.55 23.294 117.772 22.5266C117.004 21.7593 116.397 20.8622 115.951 19.8356C115.505 18.809 115.282 17.7097 115.282 16.5379C115.282 15.2624 115.505 14.0698 115.951 12.9602C116.397 11.8506 117.004 10.8862 117.772 10.067C118.55 9.23735 119.453 8.58403 120.48 8.107C121.518 7.62998 122.623 7.39147 123.795 7.39147C124.49 7.39147 125.17 7.47961 125.834 7.6559C126.508 7.8322 127.147 8.09145 127.748 8.43366C128.361 8.76551 128.921 9.17513 129.429 9.66252C129.948 10.1499 130.394 10.7099 130.768 11.3425Z" fill="black"/>
<path d="M137.133 24.6888H132.853V1.40272H137.133V16.0868L143.468 8.06034H148.355L142.83 14.9979L148.355 24.6888H143.468L140.09 18.6379L137.133 22.5578V24.6888Z" fill="black"/>
<path d="M156.136 20.6134C156.302 20.6652 156.468 20.7015 156.634 20.7222C156.8 20.7326 156.967 20.7378 157.133 20.7378C157.548 20.7378 157.947 20.6808 158.331 20.5667C158.715 20.4526 159.073 20.2919 159.405 20.0845C159.747 19.8667 160.048 19.6075 160.308 19.3067C160.577 18.9956 160.795 18.6534 160.961 18.2801L164.074 21.4067C163.68 21.9667 163.223 22.4696 162.704 22.9155C162.196 23.3614 161.641 23.74 161.039 24.0511C160.448 24.3622 159.82 24.5955 159.156 24.751C158.502 24.917 157.828 24.9999 157.133 24.9999C155.96 24.9999 154.855 24.7822 153.817 24.3466C152.79 23.9111 151.888 23.3044 151.109 22.5266C150.342 21.7489 149.735 20.826 149.288 19.7578C148.842 18.6793 148.619 17.4971 148.619 16.2112C148.619 14.8942 148.842 13.6913 149.288 12.6024C149.735 11.5136 150.342 10.5855 151.109 9.81807C151.888 9.05068 152.79 8.4544 153.817 8.02923C154.855 7.60405 155.96 7.39147 157.133 7.39147C157.828 7.39147 158.507 7.47443 159.171 7.64035C159.835 7.80627 160.463 8.04478 161.055 8.35589C161.656 8.66699 162.217 9.05068 162.735 9.50697C163.254 9.95288 163.711 10.4558 164.105 11.0158L156.136 20.6134ZM158.315 11.8558C158.118 11.7832 157.921 11.7365 157.724 11.7158C157.537 11.6951 157.34 11.6847 157.133 11.6847C156.551 11.6847 156.002 11.7936 155.483 12.0114C154.974 12.2188 154.528 12.5195 154.144 12.9136C153.771 13.3076 153.475 13.7846 153.257 14.3446C153.039 14.8942 152.93 15.5165 152.93 16.2112C152.93 16.3668 152.936 16.5431 152.946 16.7401C152.967 16.9372 152.993 17.1394 153.024 17.3468C153.065 17.5438 153.112 17.7357 153.164 17.9223C153.216 18.109 153.283 18.2749 153.366 18.4201L158.315 11.8558Z" fill="black"/>
<path d="M170.502 24.6888H166.253V8.02923H167.28L168.681 9.64697C169.366 9.02476 170.139 8.54773 171 8.21589C171.871 7.87368 172.779 7.70257 173.723 7.70257C174.74 7.70257 175.7 7.8996 176.603 8.29367C177.505 8.67736 178.294 9.21142 178.968 9.89585C179.643 10.5699 180.172 11.3632 180.556 12.2758C180.95 13.178 181.147 14.1424 181.147 15.1691V24.6888H176.898V15.1691C176.898 14.7335 176.815 14.3239 176.649 13.9402C176.483 13.5461 176.255 13.2039 175.965 12.9136C175.674 12.6232 175.337 12.395 174.953 12.2291C174.569 12.0632 174.159 11.9802 173.723 11.9802C173.277 11.9802 172.857 12.0632 172.463 12.2291C172.068 12.395 171.726 12.6232 171.436 12.9136C171.145 13.2039 170.917 13.5461 170.751 13.9402C170.585 14.3239 170.502 14.7335 170.502 15.1691V24.6888Z" fill="black"/>
</svg>
